<svg xmlns="http://www.w3.org/2000/svg" version="1.1" xmlns:xlink="http://www.w3.org/1999/xlink" xmlns:svgjs="http://svgjs.dev/svgjs" width="1000" height="1000" viewBox="0 0 1000 1000"><rect width="1000" height="1000" fill="#000000"></rect><g transform="matrix(0.7,0,0,0.7,149.57575757575756,282.1265587044535)"><svg viewBox="0 0 396 247" data-background-color="#ffffff" preserveAspectRatio="xMidYMid meet" height="623" width="1000" xmlns="http://www.w3.org/2000/svg" xmlns:xlink="http://www.w3.org/1999/xlink"><defs></defs><g id="tight-bounds" transform="matrix(1,0,0,1,0.2400000000000091,-0.09999999999999432)"><svg viewBox="0 0 395.52 247.2" height="247.2" width="395.52"><g><svg></svg></g><g><svg viewBox="0 0 395.52 247.2" height="247.2" width="395.52"><g transform="matrix(1,0,0,1,75.54432,99.99211382619026)"><svg viewBox="0 0 244.43135999999998 47.21577234761948" height="47.21577234761948" width="244.43135999999998"><g><svg viewBox="0 0 244.43135999999998 47.21577234761948" height="47.21577234761948" width="244.43135999999998"><g><svg viewBox="0 0 312.89727394625277 60.44104346855084" height="47.21577234761948" width="244.43135999999998"><g transform="matrix(1,0,0,1,68.46591394625275,8.353284589358331)"><svg viewBox="0 0 244.43135999999998 43.734474289834175" height="43.734474289834175" width="244.43135999999998"><g><svg viewBox="0 0 244.43135999999998 43.734474289834175" height="43.734474289834175" width="244.43135999999998"><g><svg viewBox="0 0 244.43135999999998 43.734474289834175" height="43.734474289834175" width="244.43135999999998"><g transform="matrix(1,0,0,1,0,0)"><svg width="244.43135999999998" viewBox="0.25 -36.83000183105469 208.02999877929688 37.230003356933594" height="43.734474289834175" data-palette-color="#01579b"><path d="M19.5-35.83L33.83 0 30.08 0Q29.43 0 29.03-0.33 28.63-0.65 28.43-1.15L28.43-1.15 25.08-9.8 9-9.8 5.65-1.15Q5.48-0.7 5.05-0.35 4.63 0 4 0L4 0 0.25 0 14.58-35.83 19.5-35.83ZM15.98-27.85L10.35-13.3 23.73-13.3 18.1-27.88Q17.55-29.23 17.03-31.25L17.03-31.25Q16.75-30.23 16.49-29.36 16.23-28.5 15.98-27.85L15.98-27.85ZM42.1 0L37.65 0 37.65-25.33 40.2-25.33Q40.92-25.33 41.2-25.05 41.47-24.78 41.57-24.1L41.57-24.1 41.87-20.15Q43.17-22.8 45.09-24.29 47-25.78 49.57-25.78L49.57-25.78Q50.62-25.78 51.47-25.54 52.32-25.3 53.05-24.88L53.05-24.88 52.47-21.55Q52.3-20.93 51.7-20.93L51.7-20.93Q51.35-20.93 50.62-21.16 49.9-21.4 48.6-21.4L48.6-21.4Q46.27-21.4 44.71-20.05 43.15-18.7 42.1-16.13L42.1-16.13 42.1 0ZM78.27 0L75.62 0Q74.67 0 74.42-0.93L74.42-0.93 74.02-4Q72.4-2.02 70.31-0.84 68.22 0.35 65.52 0.35L65.52 0.35Q63.35 0.35 61.57-0.49 59.8-1.33 58.55-2.95 57.3-4.58 56.62-7 55.95-9.43 55.95-12.58L55.95-12.58Q55.95-15.38 56.7-17.79 57.45-20.2 58.86-21.98 60.27-23.75 62.3-24.76 64.32-25.78 66.9-25.78L66.9-25.78Q69.22-25.78 70.87-24.99 72.52-24.2 73.82-22.78L73.82-22.78 73.82-36.83 78.27-36.83 78.27 0ZM67-3.25L67-3.25Q69.17-3.25 70.81-4.25 72.45-5.25 73.82-7.08L73.82-7.08 73.82-19.33Q72.6-20.98 71.13-21.64 69.67-22.3 67.9-22.3L67.9-22.3Q64.35-22.3 62.45-19.78 60.55-17.25 60.55-12.58L60.55-12.58Q60.55-10.1 60.97-8.34 61.4-6.58 62.22-5.44 63.05-4.3 64.25-3.78 65.45-3.25 67-3.25ZM85.14-25.33L89.59-25.33 89.59-9.18Q89.59-6.3 90.92-4.73 92.24-3.15 94.92-3.15L94.92-3.15Q96.87-3.15 98.59-4.08 100.32-5 101.77-6.65L101.77-6.65 101.77-25.33 106.22-25.33 106.22 0 103.57 0Q102.62 0 102.37-0.93L102.37-0.93 102.02-3.65Q100.37-1.83 98.32-0.71 96.27 0.4 93.62 0.4L93.62 0.4Q91.54 0.4 89.96-0.29 88.37-0.98 87.29-2.23 86.22-3.48 85.68-5.25 85.14-7.03 85.14-9.18L85.14-9.18 85.14-25.33ZM114.24-35.83L136.32-35.83 136.32-31.88 119.12-31.88 119.12-19.35 133.82-19.35 133.82-15.4 119.12-15.4 119.12 0 114.24 0 114.24-35.83ZM160.44-16.2L160.44 0 158.46 0Q157.81 0 157.41-0.2 157.01-0.4 156.89-1.05L156.89-1.05 156.39-3.4Q155.39-2.5 154.44-1.79 153.49-1.07 152.44-0.59 151.39-0.1 150.2 0.15 149.01 0.4 147.56 0.4L147.56 0.4Q146.09 0.4 144.8-0.01 143.51-0.43 142.56-1.25 141.61-2.08 141.05-3.34 140.49-4.6 140.49-6.33L140.49-6.33Q140.49-7.83 141.31-9.21 142.14-10.6 143.98-11.68 145.81-12.75 148.79-13.44 151.76-14.13 156.06-14.23L156.06-14.23 156.06-16.2Q156.06-19.15 154.8-20.66 153.54-22.18 151.06-22.18L151.06-22.18Q149.44-22.18 148.33-21.76 147.21-21.35 146.4-20.84 145.59-20.33 145-19.91 144.41-19.5 143.84-19.5L143.84-19.5Q143.39-19.5 143.05-19.74 142.71-19.98 142.51-20.33L142.51-20.33 141.71-21.75Q143.81-23.78 146.24-24.78 148.66-25.78 151.61-25.78L151.61-25.78Q153.74-25.78 155.39-25.08 157.04-24.38 158.16-23.13 159.29-21.88 159.86-20.1 160.44-18.32 160.44-16.2L160.44-16.2ZM148.89-2.73L148.89-2.73Q150.06-2.73 151.04-2.96 152.01-3.2 152.88-3.64 153.74-4.08 154.53-4.7 155.31-5.33 156.06-6.13L156.06-6.13 156.06-11.4Q152.99-11.3 150.84-10.91 148.69-10.53 147.34-9.9 145.99-9.28 145.38-8.43 144.76-7.58 144.76-6.53L144.76-6.53Q144.76-5.53 145.09-4.8 145.41-4.08 145.96-3.61 146.51-3.15 147.26-2.94 148.01-2.73 148.89-2.73ZM185.64-22.43L184.46-20.83Q184.26-20.55 184.06-20.4 183.86-20.25 183.49-20.25L183.49-20.25Q183.11-20.25 182.67-20.56 182.24-20.88 181.56-21.25 180.89-21.63 179.92-21.94 178.96-22.25 177.56-22.25L177.56-22.25Q175.71-22.25 174.29-21.59 172.86-20.93 171.9-19.68 170.94-18.43 170.45-16.65 169.96-14.88 169.96-12.68L169.96-12.68Q169.96-10.38 170.49-8.59 171.01-6.8 171.96-5.59 172.91-4.38 174.27-3.74 175.64-3.1 177.34-3.1L177.34-3.1Q178.96-3.1 180.01-3.49 181.06-3.88 181.76-4.35 182.46-4.83 182.91-5.21 183.36-5.6 183.81-5.6L183.81-5.6Q184.39-5.6 184.66-5.18L184.66-5.18 185.91-3.55Q184.26-1.53 181.79-0.59 179.31 0.35 176.56 0.35L176.56 0.35Q174.19 0.35 172.15-0.53 170.11-1.4 168.61-3.06 167.11-4.73 166.25-7.15 165.39-9.58 165.39-12.68L165.39-12.68Q165.39-15.5 166.17-17.9 166.96-20.3 168.47-22.04 169.99-23.78 172.21-24.75 174.44-25.73 177.31-25.73L177.31-25.73Q179.96-25.73 182.01-24.86 184.06-24 185.64-22.43L185.64-22.43ZM191.03-25.33L195.48-25.33 195.48 0 191.03 0 191.03-25.33ZM196.48-33.27L196.48-33.27Q196.48-32.63 196.22-32.06 195.96-31.5 195.52-31.06 195.08-30.63 194.51-30.38 193.93-30.13 193.28-30.13L193.28-30.13Q192.63-30.13 192.07-30.38 191.51-30.63 191.07-31.06 190.63-31.5 190.38-32.06 190.13-32.63 190.13-33.27L190.13-33.27Q190.13-33.93 190.38-34.51 190.63-35.1 191.07-35.54 191.51-35.98 192.07-36.23 192.63-36.48 193.28-36.48L193.28-36.48Q193.93-36.48 194.51-36.23 195.08-35.98 195.52-35.54 195.96-35.1 196.22-34.51 196.48-33.93 196.48-33.27ZM203.83-36.83L208.28-36.83 208.28 0 203.83 0 203.83-36.83Z" opacity="1" transform="matrix(1,0,0,1,0,0)" fill="#ffffff" class="undefined-text-0" data-fill-palette-color="primary" id="text-0"></path></svg></g></svg></g></svg></g></svg></g><g><svg viewBox="0 0 58.14125419380586 60.44104346855084" height="60.44104346855084" width="58.14125419380586"><g><svg xmlns="http://www.w3.org/2000/svg" xmlns:xlink="http://www.w3.org/1999/xlink" version="1.1" x="0" y="0" viewBox="18.322998046875 17.068994522094727 63.35498809814453 65.86100769042969" enable-background="new 0 0 100 100" xml:space="preserve" height="60.44104346855084" width="58.14125419380586" class="icon-icon-0" data-fill-palette-color="accent" id="icon-0"><g fill="#01579b" data-fill-palette-color="accent"><path d="M41.086 21.513c0.172-0.39 0.271-0.819 0.271-1.273 0-1.748-1.422-3.17-3.17-3.17s-3.17 1.422-3.17 3.17 1.422 3.17 3.17 3.17c0.375 0 0.73-0.077 1.064-0.197l24.309 26.045-13.675 27.35c-0.06-0.003-0.117-0.018-0.178-0.018-1.748 0-3.17 1.422-3.17 3.17s1.422 3.17 3.17 3.17c1.748 0 3.17-1.422 3.17-3.17 0-0.777-0.292-1.479-0.757-2.031l14.064-28.13c0.233-0.467 0.152-1.03-0.204-1.412L41.086 21.513z" fill="#ffffff" data-fill-palette-color="accent"></path><path d="M58.506 49.599c0.24-0.481 0.146-1.062-0.234-1.442L31.527 21.412c0.146-0.363 0.23-0.757 0.23-1.172 0-1.748-1.422-3.17-3.17-3.17s-3.17 1.422-3.17 3.17 1.422 3.17 3.17 3.17c0.415 0 0.808-0.085 1.171-0.23l14.67 14.67c-0.029 0.024-0.065 0.034-0.092 0.061L31.114 51.134l-6.682-6.682c0.145-0.363 0.23-0.757 0.23-1.172 0-1.748-1.422-3.17-3.169-3.17-1.748 0-3.17 1.422-3.17 3.17 0 1.748 1.422 3.17 3.17 3.17 0.414 0 0.808-0.085 1.171-0.23l6.683 6.682-7.089 7.089c-0.088 0.088-0.142 0.193-0.198 0.297-0.287 0.229-0.482 0.566-0.482 0.962v6.018c-0.365 0.149-0.705 0.363-0.992 0.65-1.235 1.236-1.235 3.247 0 4.483 0.599 0.599 1.395 0.929 2.242 0.929s1.643-0.33 2.241-0.929c0.599-0.599 0.929-1.395 0.929-2.241s-0.33-1.643-0.929-2.242c-0.287-0.287-0.626-0.501-0.991-0.65v-5.562l22.028-22.028c0.027-0.027 0.037-0.063 0.061-0.092L48.9 42.32 27.704 63.516c-0.008 0.008-0.01 0.019-0.018 0.027-0.104 0.11-0.192 0.236-0.251 0.379-0.063 0.153-0.097 0.315-0.097 0.479v10.548c-0.365 0.149-0.705 0.363-0.992 0.65-1.236 1.235-1.236 3.247 0 4.483 0.599 0.599 1.395 0.928 2.242 0.928 0.847 0 1.643-0.329 2.241-0.928 1.236-1.236 1.236-3.247 0-4.483-0.287-0.287-0.626-0.501-0.991-0.65V64.917l20.83-20.83 5.199 5.199L42.206 76.608c-0.061-0.003-0.118-0.018-0.179-0.018-1.748 0-3.17 1.422-3.17 3.17s1.422 3.17 3.17 3.17c1.748 0 3.17-1.422 3.17-3.17 0-0.777-0.292-1.479-0.757-2.031L58.506 49.599z" fill="#ffffff" data-fill-palette-color="accent"></path><path d="M78.508 74.67c-0.257 0-0.503 0.039-0.742 0.097l-3.768-5.023V49.04c0-0.313-0.118-0.614-0.329-0.845l-8.208-8.954 6.114-6.114c0.363 0.146 0.757 0.231 1.172 0.231 1.748 0 3.169-1.422 3.169-3.17 0-1.748-1.422-3.17-3.169-3.17-1.748 0-3.17 1.422-3.17 3.17 0 0.415 0.085 0.808 0.23 1.171l-6.038 6.037-3.066-3.345 10.872-10.872c0.363 0.145 0.757 0.23 1.172 0.23 1.748 0 3.169-1.422 3.169-3.17s-1.422-3.17-3.169-3.17c-1.748 0-3.17 1.422-3.17 3.17 0 0.415 0.085 0.809 0.23 1.172L59.013 32.207l-6.135-6.693V23.15c1.127-0.486 1.92-1.607 1.92-2.911 0-1.748-1.422-3.17-3.17-3.17-1.748 0-3.17 1.422-3.17 3.17 0 1.304 0.792 2.425 1.92 2.911V26c0 0.061 0.026 0.114 0.035 0.172 0.014 0.095 0.021 0.189 0.057 0.279 0.033 0.086 0.088 0.156 0.139 0.231 0.035 0.053 0.053 0.114 0.098 0.162l20.792 22.682V70.16c0 0.271 0.087 0.534 0.25 0.75l4.021 5.362c-0.267 0.464-0.432 0.995-0.432 1.568 0 1.748 1.422 3.17 3.17 3.17 1.748 0 3.17-1.422 3.17-3.17S80.255 74.67 78.508 74.67z" fill="#ffffff" data-fill-palette-color="accent"></path></g></svg></g></svg></g></svg></g></svg></g></svg></g><path d="M190.384 93.992L190.384 30.61 4.404 30.61 4.404 216.59 190.384 216.59 190.384 153.208 187.303 153.208 187.303 213.509 7.485 213.509 7.485 33.691 187.303 33.691 187.303 93.992Z" fill="#ffffff" stroke="transparent" data-fill-palette-color="primary"></path></svg></g></svg><rect width="395.52" height="247.2" fill="none" stroke="none" visibility="hidden"></rect></g></svg></g></svg>